<?xml version="1.0" encoding="utf-8"?>
<!-- Generator: Adobe Illustrator 24.1.0, SVG Export Plug-In . SVG Version: 6.00 Build 0)  -->
<svg version="1.0" id="Layer_1" xmlns="http://www.w3.org/2000/svg" xmlns:xlink="http://www.w3.org/1999/xlink" x="0px" y="0px"
	 viewBox="0 0 50 50" style="enable-background:new 0 0 50 50;" xml:space="preserve">
<style type="text/css">
	.st0{fill:#EE4640;}
	.st1{fill:#FFFFFF;}
</style>
<path class="st0" d="M34.1,36.9H15.8c-4.9,0-8.8-4-8.8-8.8V9.8c0-4.9,4-8.8,8.8-8.8h18.3c4.9,0,8.8,4,8.8,8.8v18.3
	C43,32.9,39,36.9,34.1,36.9z"/>
<g>
	<path class="st0" d="M12.1,48.7c-0.4,0-0.9-0.1-1.3-0.3s-0.7-0.4-1-0.7c-0.3-0.3-0.5-0.7-0.7-1.1s-0.2-0.8-0.2-1.3
		c0-0.5,0.1-0.9,0.2-1.3s0.4-0.8,0.7-1.1c0.3-0.3,0.6-0.5,1-0.7c0.4-0.2,0.8-0.3,1.3-0.3c0.4,0,0.8,0.1,1.1,0.2
		c0.3,0.1,0.6,0.3,0.9,0.5c0,0,0.1,0.1,0.1,0.1c0,0,0,0.1,0,0.1c0,0,0,0.1,0,0.1c0,0.1,0,0.2-0.1,0.3c-0.1,0.1-0.2,0.1-0.3,0.1
		c-0.1,0-0.2,0-0.3-0.1c-0.2-0.2-0.4-0.3-0.6-0.4c-0.2-0.1-0.5-0.1-0.9-0.1c-0.3,0-0.6,0.1-0.9,0.2c-0.3,0.1-0.5,0.3-0.8,0.5
		S10,44,9.9,44.4c-0.1,0.3-0.2,0.6-0.2,1c0,0.4,0.1,0.7,0.2,1c0.1,0.3,0.3,0.6,0.5,0.8s0.5,0.4,0.8,0.5c0.3,0.1,0.6,0.2,0.9,0.2
		c0.3,0,0.5,0,0.8-0.1s0.5-0.2,0.7-0.4c0.1-0.1,0.2-0.1,0.3-0.1c0.1,0,0.2,0,0.2,0.1s0.1,0.2,0.1,0.3c0,0.1,0,0.1,0,0.2
		c0,0.1-0.1,0.1-0.1,0.1c-0.3,0.2-0.6,0.4-1,0.5S12.4,48.7,12.1,48.7z"/>
	<path class="st0" d="M16,48.6c-0.1,0-0.2,0-0.3-0.1s-0.1-0.2-0.1-0.3v-5.6c0-0.1,0-0.2,0.1-0.3s0.2-0.1,0.3-0.1h2
		c0.4,0,0.7,0.1,1,0.2c0.3,0.1,0.5,0.4,0.7,0.6c0.2,0.3,0.2,0.6,0.2,0.9c0,0.3-0.1,0.5-0.2,0.7c-0.1,0.2-0.3,0.4-0.6,0.5
		c0.4,0.1,0.7,0.3,0.9,0.5c0.2,0.3,0.3,0.6,0.3,1c0,0.4-0.1,0.7-0.3,1c-0.2,0.3-0.4,0.5-0.8,0.7s-0.7,0.3-1.1,0.3H16z M16.5,44.8H18
		c0.3,0,0.6-0.1,0.8-0.2s0.3-0.4,0.3-0.7s-0.1-0.5-0.3-0.7s-0.5-0.2-0.8-0.2h-1.6V44.8z M16.5,47.8h1.7c0.3,0,0.5,0,0.7-0.1
		c0.2-0.1,0.3-0.2,0.5-0.4c0.1-0.2,0.2-0.4,0.2-0.6c0-0.2-0.1-0.4-0.2-0.6c-0.1-0.2-0.3-0.3-0.5-0.4c-0.2-0.1-0.4-0.1-0.7-0.1h-1.7
		V47.8z"/>
	<path class="st0" d="M26.1,48.6c-0.5,0-0.9-0.1-1.2-0.3s-0.6-0.5-0.8-0.8c-0.2-0.3-0.3-0.7-0.3-1.2c0-0.5,0.1-0.9,0.3-1.2
		c0.2-0.3,0.5-0.6,0.8-0.8c0.3-0.2,0.7-0.3,1.2-0.3c0.4,0,0.8,0.1,1.1,0.3c0.3,0.2,0.5,0.5,0.7,0.8s0.2,0.7,0.2,1.2
		c0,0.1,0,0.2-0.1,0.3c-0.1,0.1-0.2,0.1-0.3,0.1h-3.3v-0.7h3.3l-0.3,0.2c0-0.3-0.1-0.5-0.2-0.7c-0.1-0.2-0.3-0.4-0.4-0.5
		c-0.2-0.1-0.4-0.2-0.7-0.2c-0.3,0-0.6,0.1-0.8,0.2c-0.2,0.1-0.4,0.3-0.5,0.6c-0.1,0.2-0.2,0.5-0.2,0.8s0.1,0.6,0.2,0.8
		c0.1,0.2,0.3,0.4,0.6,0.6c0.2,0.1,0.5,0.2,0.8,0.2c0.2,0,0.3,0,0.5-0.1c0.2-0.1,0.3-0.1,0.4-0.2c0.1-0.1,0.2-0.1,0.3-0.1
		c0.1,0,0.2,0,0.3,0.1c0.1,0.1,0.1,0.2,0.1,0.3c0,0.1,0,0.2-0.1,0.3c-0.2,0.1-0.4,0.3-0.7,0.4C26.6,48.6,26.4,48.6,26.1,48.6z"/>
	<path class="st0" d="M30.9,48.6c-0.4,0-0.8-0.1-1.1-0.3c-0.3-0.2-0.6-0.5-0.8-0.8c-0.2-0.3-0.3-0.7-0.3-1.2s0.1-0.8,0.3-1.2
		s0.5-0.6,0.8-0.8c0.3-0.2,0.7-0.3,1.2-0.3s0.8,0.1,1.2,0.3c0.3,0.2,0.6,0.5,0.8,0.8s0.3,0.7,0.3,1.2H33c0,0.4-0.1,0.8-0.3,1.2
		c-0.2,0.3-0.4,0.6-0.8,0.8S31.3,48.6,30.9,48.6z M31,47.9c0.3,0,0.5-0.1,0.8-0.2s0.4-0.3,0.5-0.6c0.1-0.2,0.2-0.5,0.2-0.8
		c0-0.3-0.1-0.6-0.2-0.8c-0.1-0.2-0.3-0.4-0.5-0.6s-0.5-0.2-0.8-0.2c-0.3,0-0.5,0.1-0.8,0.2c-0.2,0.1-0.4,0.3-0.5,0.6
		s-0.2,0.5-0.2,0.8c0,0.3,0.1,0.6,0.2,0.8s0.3,0.4,0.5,0.6C30.5,47.8,30.7,47.9,31,47.9z M32.9,48.6c-0.1,0-0.2,0-0.3-0.1
		s-0.1-0.2-0.1-0.3v-1.3l0.2-0.9l0.7,0.3v1.9c0,0.1,0,0.2-0.1,0.3S33,48.6,32.9,48.6z"/>
	<path class="st0" d="M34.4,44.9c-0.1,0-0.2,0-0.3-0.1C34,44.8,34,44.7,34,44.6c0-0.1,0-0.2,0.1-0.3c0.1-0.1,0.2-0.1,0.3-0.1h1.9
		c0.1,0,0.2,0,0.3,0.1s0.1,0.2,0.1,0.3c0,0.1,0,0.2-0.1,0.2s-0.2,0.1-0.3,0.1H34.4z M36.2,48.6c-0.3,0-0.5-0.1-0.7-0.2
		c-0.2-0.1-0.4-0.3-0.5-0.6c-0.1-0.2-0.2-0.5-0.2-0.8v-4c0-0.1,0-0.2,0.1-0.3c0.1-0.1,0.2-0.1,0.3-0.1c0.1,0,0.2,0,0.3,0.1
		c0.1,0.1,0.1,0.2,0.1,0.3v4c0,0.2,0.1,0.4,0.2,0.6s0.3,0.2,0.4,0.2h0.3c0.1,0,0.2,0,0.3,0.1c0.1,0.1,0.1,0.2,0.1,0.3s0,0.2-0.1,0.3
		c-0.1,0.1-0.2,0.1-0.4,0.1H36.2z"/>
	<path class="st0" d="M39.6,48.6c-0.4,0-0.7-0.1-1.1-0.2c-0.3-0.1-0.6-0.3-0.8-0.5c-0.1-0.1-0.1-0.2-0.1-0.3c0-0.1,0.1-0.2,0.2-0.3
		c0.1-0.1,0.2-0.1,0.3-0.1c0.1,0,0.2,0.1,0.3,0.1c0.1,0.1,0.2,0.2,0.5,0.3c0.2,0.1,0.4,0.1,0.7,0.1c0.3,0,0.6-0.1,0.7-0.2
		s0.3-0.2,0.3-0.4c0-0.2-0.1-0.3-0.2-0.4c-0.2-0.1-0.5-0.2-0.9-0.3c-0.6-0.1-1-0.3-1.2-0.5s-0.4-0.5-0.4-0.8c0-0.3,0.1-0.5,0.2-0.7
		s0.4-0.3,0.6-0.4c0.3-0.1,0.5-0.1,0.8-0.1c0.4,0,0.7,0.1,1,0.2s0.5,0.3,0.7,0.5c0.1,0.1,0.1,0.2,0.1,0.3c0,0.1-0.1,0.2-0.1,0.2
		c-0.1,0.1-0.2,0.1-0.3,0.1c-0.1,0-0.2-0.1-0.3-0.1c-0.1-0.1-0.3-0.2-0.4-0.3c-0.2,0-0.3-0.1-0.6-0.1c-0.2,0-0.5,0-0.6,0.1
		s-0.3,0.2-0.3,0.4c0,0.1,0,0.2,0.1,0.3c0.1,0.1,0.2,0.2,0.3,0.2s0.4,0.1,0.7,0.2c0.4,0.1,0.7,0.2,1,0.3c0.2,0.1,0.4,0.3,0.5,0.4
		c0.1,0.2,0.2,0.4,0.2,0.6c0,0.3-0.1,0.5-0.2,0.7c-0.1,0.2-0.3,0.4-0.6,0.5S39.9,48.6,39.6,48.6z"/>
</g>
<g>
	<path class="st1" d="M32.3,24.9c0.1,0.2,0,0.6-0.2,0.7l-2.7,1.5c-0.9,0.5-1.2,1.6-0.7,2.5c0.5,0.9,1.6,1.2,2.5,0.7l2.7-1.5
		c0.2-0.1,0.6,0,0.7,0.2c0.1,0.2,0,0.6-0.2,0.7l-2.7,1.5c-1.4,0.8-3.1,0.3-3.9-1.1c-0.8-1.4-0.3-3.1,1.1-3.9l2.7-1.5
		C31.9,24.6,32.2,24.7,32.3,24.9z"/>
	<g>
		<path class="st1" d="M33.3,27.7l-0.5-0.9l0,0l0,0l0,0l0,0l0,0l0,0l0,0l0,0l0,0l0,0l0,0l0,0l0,0l0,0l0,0l0,0l0,0l0,0l0,0l0,0l0,0
			l0,0l0,0l0,0l0,0l0,0l0,0l0,0l0,0l0,0l0,0l0,0l0,0l0,0l0,0l0,0l0,0l0,0l0,0l0,0l0,0l0,0l0,0l0,0l0,0l0,0l0,0l0,0l0,0l0,0l0,0l0,0
			l0,0l0,0l0,0l0,0l0,0l0,0l0,0L33.3,27.7L33.3,27.7L33.3,27.7L33.3,27.7L33.3,27.7L33.3,27.7z M28,29.4l4.8-2.6l0.5,0.9l-4.8,2.6
			L28,29.4z M28,29.4l0.5,0.9l0,0l0,0l0,0l0,0l0,0l0,0l0,0l0,0l0,0l0,0l0,0l0,0l0,0l0,0l0,0l0,0l0,0l0,0l0,0l0,0l0,0l0,0l0,0l0,0
			l0,0l0,0l0,0l0,0l0,0l0,0l0,0l0,0l0,0l0,0l0,0l0,0l0,0l0,0l0,0l0,0l0,0l0,0l0,0l0,0l0,0l0,0l0,0l0,0l0,0l0,0l0,0l0,0l0,0l0,0l0,0
			l0,0l0,0l0,0l0,0L28,29.4L28,29.4L28,29.4L28,29.4L28,29.4z"/>
	</g>
	<g>
		<path class="st1" d="M24.5,31.2c-5.2,0-9.2-3.9-9.2-8.9c0-4.2,2.8-7.7,6.7-8.9V7.2c0-0.5,0.4-0.8,0.8-0.8h4.3c0.2,0,1.5,0,2.6,1
			c0.8,0.7,1.1,1.8,1.1,3.1c0,0,0,0,0,0c0,0.7-0.2,1.3-0.5,1.9c-0.2,0.4-0.8,0.5-1.2,0.3c-0.4-0.2-0.5-0.8-0.3-1.2
			c0.2-0.3,0.3-0.6,0.3-1.1c0-0.8-0.2-1.5-0.6-1.8C28,8,27.2,8.1,27.2,8.1c0,0,0,0,0,0h-3.5v5c0.3,0,0.6,0,0.9,0h3.1
			c3.3,0,5.4,2.8,5.4,5.4c0,3-2.4,5.4-5.4,5.4h-4.8c-0.5,0-0.8-0.4-0.8-0.8v-7.8c-2.9,1.1-5,3.8-5,7.1c0,2,0.6,3.8,2,5.1
			c1.9,1.9,3.7,2.6,5.5,2.6c3.4,0,4.1-0.8,5.8-1.6C30.7,28.7,28.9,31.2,24.5,31.2z M23.7,22.1h4c2,0,3.7-1.7,3.7-3.7
			c0-2.5-2.2-3.7-3.7-3.7h-3.1c-0.3,0-0.6,0-0.9,0.1V22.1z"/>
	</g>
</g>
</svg>
