<?xml version="1.0" encoding="utf-8"?>
<!-- Generator: Adobe Illustrator 24.0.1, SVG Export Plug-In . SVG Version: 6.00 Build 0)  -->
<svg version="1.1" id="Layer_1" xmlns="http://www.w3.org/2000/svg" xmlns:xlink="http://www.w3.org/1999/xlink" x="0px" y="0px"
	 viewBox="0 0 614.39 556.98" style="enable-background:new 0 0 614.39 556.98;" xml:space="preserve">
<style type="text/css">
	.st0{fill-rule:evenodd;clip-rule:evenodd;fill:#5CC6CF;}
	.st1{fill-rule:evenodd;clip-rule:evenodd;fill:#EE2E63;}
	.st2{fill:#FFFFFF;}
</style>
<g>
	<path class="st0" d="M593.3,315.28c-16.51-24.4-8.66-50.86-8.66-50.86c4.01-14.85,11.86-27.83,15.44-37.26
		c18.11-47.64-17.05-76.33-46.98-81.74c-29.94-5.39-35.44-24.89-39.58-37.96c-15.8-49.91-20.68-53.36-35.49-64.16
		c-17.48-12.74-38.72-13.07-67.24-4.32c-28.53,8.76-50.54-3.65-50.54-3.65C340.33,24.19,321.7-1.46,291.3,1.75
		c-30.4,3.22-42.39,33.17-65.07,57.45c-14.16,15.15-24.5,16.71-33.74,15.66c-49.66-5.6-66.5,22.3-66.5,22.3
		c-22.45,18.29-12.41,70.02-12.41,70.02c2.25,13.24-6.9,29.38-23.19,33.45c-11.6,2.9-34.11,11.2-45,17.85
		c-19.98,12.2-35.08,31.15-40.37,54.19c-8.07,35.16,8.21,73.67,38.85,91.33c23.1,13.31,38.51,9.92,46.01,17.9
		c8.15,8.66,4.93,29,19.86,49.9c17.82,24.95,48.38,40.54,74.85,39.72c48.88-1.53,68.17,49.99,68.17,49.99
		c37.13,63.72,105.14,11.89,105.14,11.89c32.71-26.81,50.03-15.65,65.26-9.34c79.47,32.94,87.76-47.73,87.76-47.73
		c8.6-50.7,28.75-54.08,46.86-59.84C623.43,395.59,609.83,339.71,593.3,315.28z"/>
	<path class="st1" d="M593.3,315.28c-16.51-24.4-8.66-50.86-8.66-50.86c4.01-14.85,11.86-27.83,15.44-37.26
		c18.11-47.64-17.05-76.33-46.98-81.74c-29.94-5.39-35.44-24.89-39.58-37.96c-15.8-49.91-20.68-53.36-35.49-64.16
		c-17.48-12.74-38.72-13.07-67.24-4.32c-28.53,8.76-50.54-3.65-50.54-3.65C340.33,24.19,321.7-1.46,291.3,1.75
		c-30.4,3.22-42.39,33.17-65.07,57.45c-14.16,15.15-24.5,16.71-33.74,15.66c-49.66-5.6-66.5,22.3-66.5,22.3
		c-22.45,18.29-12.41,70.02-12.41,70.02c2.25,13.24-6.9,29.38-23.19,33.45c-11.6,2.9-34.11,11.2-45,17.85
		c-19.98,12.2-35.08,31.15-40.37,54.19c-8.07,35.16,8.21,73.67,38.85,91.33c23.1,13.31,38.51,9.92,46.01,17.9
		c8.15,8.66,4.93,29,19.86,49.9c17.82,24.95,48.38,40.54,74.85,39.72c48.88-1.53,68.17,49.99,68.17,49.99
		c37.13,63.72,105.14,11.89,105.14,11.89c32.71-26.81,50.03-15.65,65.26-9.34c79.47,32.94,87.76-47.73,87.76-47.73
		c8.6-50.7,28.75-54.08,46.86-59.84C623.43,395.59,609.83,339.71,593.3,315.28z"/>
	<g>
		<path class="st2" d="M537.48,240.7c-2.36-1.19-5.24-0.25-6.43,2.11c-6.11,12.08-11.91,21.2-21.93,29.32
			c-6.86,5.55-15.75,8.57-22.66,7.7c-4.51-0.57-8.18-2.74-10.93-6.45c-1.57-2.13-2.5-4.89-3.27-7.58c-0.14-0.5-0.28-1-0.4-1.49
			c3.04-2.17,6.25-4.2,9.56-6.29c5.94-3.75,12.08-7.63,17.79-12.87c10.99-10.07,23.44-23.09,22.03-34.42
			c-0.39-3.16-2.07-7.58-7.85-10.71c-3.97-2.15-8.55-2.47-13.24-0.93c-0.02,0.01-0.05,0.02-0.08,0.03
			c-15.57,5.18-29.4,29.26-32.24,35.42c-4.11,8.87-7.08,16.36-6.32,25.64c-1.11,0.92-2.2,1.87-3.26,2.87
			c-3.51,3.3-6.65,6.91-9.7,10.4c-3.03,3.49-5.9,6.78-9.09,9.76c-4.94,4.63-12.59,10.03-21,9.58c-6.89-0.38-13.28-4.59-20.33-9.62
			c-0.79-0.57-2.65-1.89-2.84-2.67c-0.02-0.07-0.05-0.14-0.08-0.21c1.92-1.63,3.83-3.27,5.77-4.88
			c9.07-7.54,18.45-15.34,26.29-24.67c10-11.94,9.85-20.96,7.95-26.41c-0.85-2.47-3.53-3.79-6.01-2.98
			c-0.02,0.01-0.05,0.02-0.08,0.03c-2.49,0.86-3.81,3.59-2.95,6.08c1.96,5.65-2.32,12.44-6.26,17.13
			c-7.28,8.67-15.92,15.86-25.07,23.46c-3.42,2.84-6.84,5.69-10.18,8.61c-5.15,4.51-10.81,9.85-16,16.03
			c1.26-4.13,2.71-8.24,4.39-12.4c3.05-7.55,8.03-14.16,13.31-21.15l2.09-2.77c29.36-38.76,62.41-89.67,53.16-112.1
			c-1.8-4.38-6.07-9.91-16.12-11.32c-4.22-0.6-8.68,0.15-13.7,2.3c-15.94,6.81-27.73,22.78-36.05,48.82
			c-5.63,17.62-9.73,47.82-13.34,74.46c-1.45,10.68-2.84,20.92-4.23,29.67c-4.37,13.77-10.4,27.44-25.78,30.19
			c-2.84,0.5-9.86,1.25-13.76-2.71c-1.31-1.33-2.33-3.27-3.08-5.9c1.87-4.84,3.11-10.06,2.85-15.56c-0.08-1.8-1.17-3.39-2.81-4.13
			c-1.65-0.74-3.56-0.49-4.95,0.63c-4.68,3.75-6.52,10.34-5.1,18.19c-1.42,3.13-3.19,6.37-5.16,9.84c-0.83,1.46-1.78,3.28-2.84,5.3
			c-5.77,11.02-16.51,31.6-27.66,27.17c-8.51-3.35-5.18-23.73-1.6-33.39c4.33-11.7,12.46-23.61,24.15-35.41
			c6.18-6.23,19.91-14.26,25.47-12.15c1.87,0.71,2.93,3.17,3.16,7.29c0.15,2.64,2.4,4.66,5.03,4.52c2.64-0.13,4.66-2.39,4.52-5.03
			c-0.56-10.27-5.37-14.21-9.31-15.71c-11.66-4.44-29.37,8.01-35.67,14.36c-12.65,12.77-21.51,25.83-26.32,38.82
			c-3.85,10.4-10.08,38.86,7.06,45.61c4.44,1.75,8.57,1.72,12.38,0.47c12.6-4.13,21.75-21.59,27.25-32.09
			c1.01-1.92,1.9-3.63,2.69-5.02c0.52-0.92,1.06-1.86,1.59-2.83c0.49,0.63,0.99,1.22,1.54,1.77c4.99,5.06,13.09,7.03,22.23,5.4
			c8.69-1.54,15.08-5.6,19.94-10.92c-0.56,4.81-0.97,9.78-1.19,15.07c-0.11,2.64,1.94,4.87,4.58,4.98c0.59,0.02,1.16-0.06,1.69-0.23
			c1.84-0.6,3.2-2.3,3.29-4.34c0.17-4.12,0.47-8.02,0.85-11.81c0.09-0.18,0.19-0.34,0.26-0.54c4.67-13.74,15.01-24.85,24.35-33.35
			c1.47,1.98,3.37,3.35,4.7,4.3c6.39,4.57,15.14,10.82,25.36,11.38c11.79,0.67,21.77-6.24,28.07-12.14
			c3.54-3.32,6.71-6.95,9.77-10.46c2.71-3.11,5.28-6.07,8.07-8.8c0.9,2.71,2.12,5.57,4.01,8.12c4.3,5.8,10.33,9.34,17.41,10.24
			c5.13,0.65,10.29-0.12,15.06-1.69c5.79-1.9,10.99-4.97,14.82-8.07c11.31-9.16,17.95-19.59,24.45-32.43
			C540.78,244.77,539.84,241.89,537.48,240.7z M371.93,259.82c3.56-26.25,7.59-56.01,12.98-72.84c7.42-23.23,17.47-37.28,30.7-42.93
			c0.74-0.31,1.46-0.59,2.16-0.82c2.42-0.79,4.59-1.06,6.45-0.8c6.04,0.85,7.81,3.55,8.61,5.5c5.71,13.83-13.71,52.21-51.94,102.68
			l-2.1,2.79c-2.49,3.3-5.02,6.65-7.36,10.15C371.59,262.31,371.76,261.07,371.93,259.82z M471.3,253.15
			c0.73-4.38,2.56-8.83,5.21-14.58c3.97-8.59,16.24-26.92,26.59-30.36c0.01,0,0.03-0.01,0.05-0.02c2.92-0.96,4.65-0.31,5.71,0.26
			c2.36,1.27,2.79,2.52,2.91,3.47c0.45,3.59-2.49,11.06-19.28,26.44c-4.81,4.41-10.32,7.89-16.16,11.58
			C474.66,250.99,472.97,252.06,471.3,253.15z"/>
		<path class="st2" d="M422.7,132.77c0.96,0,1.91,0.07,2.84,0.2c10.05,1.42,14.32,6.94,16.12,11.33
			c9.25,22.43-23.8,73.34-53.16,112.1l-2.09,2.77c-5.27,6.99-10.26,13.6-13.31,21.15c-1.68,4.16-3.14,8.27-4.39,12.4
			c5.19-6.18,10.85-11.52,16-16.03c3.34-2.92,6.76-5.77,10.18-8.61c9.15-7.6,17.79-14.79,25.07-23.46
			c3.93-4.69,8.21-11.48,6.26-17.13c-0.87-2.49,0.45-5.22,2.95-6.08c0.03-0.01,0.05-0.02,0.08-0.03c0.49-0.16,1-0.24,1.49-0.24
			c1.98,0,3.83,1.24,4.52,3.22c1.89,5.46,2.05,14.47-7.95,26.41c-7.83,9.34-17.21,17.13-26.29,24.67c-1.94,1.61-3.85,3.25-5.77,4.88
			c0.02,0.07,0.06,0.14,0.08,0.21c0.19,0.78,2.04,2.1,2.84,2.67c7.05,5.03,13.44,9.23,20.33,9.62c0.34,0.02,0.67,0.03,1,0.03
			c8.01,0,15.25-5.16,19.99-9.6c3.19-2.98,6.05-6.28,9.09-9.76c3.04-3.49,6.18-7.1,9.7-10.4c1.06-1,2.15-1.95,3.26-2.87
			c-0.76-9.28,2.22-16.77,6.32-25.64c2.85-6.16,16.67-30.24,32.24-35.42c0.03-0.01,0.06-0.02,0.08-0.03
			c1.95-0.64,3.88-0.96,5.76-0.96c2.63,0,5.16,0.63,7.48,1.88c5.78,3.13,7.46,7.54,7.85,10.71c1.4,11.32-11.04,24.34-22.03,34.42
			c-5.72,5.24-11.86,9.12-17.79,12.87c-3.32,2.09-6.53,4.12-9.56,6.29c0.12,0.48,0.26,0.98,0.4,1.49c0.77,2.68,1.7,5.45,3.27,7.58
			c2.75,3.71,6.43,5.88,10.93,6.45c0.78,0.1,1.59,0.15,2.42,0.15c6.47,0,14.16-2.93,20.23-7.85c10.02-8.12,15.82-17.24,21.93-29.32
			c0.84-1.67,2.53-2.63,4.27-2.63c0.73,0,1.46,0.17,2.16,0.52c2.36,1.19,3.3,4.07,2.11,6.43c-6.5,12.84-13.15,23.27-24.45,32.43
			c-3.83,3.11-9.03,6.17-14.82,8.07c-3.61,1.19-7.46,1.92-11.35,1.92c-1.23,0-2.47-0.07-3.71-0.23c-7.09-0.9-13.11-4.44-17.41-10.24
			c-1.89-2.55-3.11-5.42-4.01-8.12c-2.79,2.73-5.36,5.69-8.07,8.8c-3.06,3.51-6.22,7.14-9.77,10.46
			c-6.01,5.63-15.38,12.19-26.48,12.19c-0.53,0-1.06-0.01-1.59-0.04c-10.21-0.56-18.97-6.82-25.36-11.38
			c-1.33-0.95-3.23-2.32-4.7-4.3c-9.35,8.5-19.68,19.61-24.35,33.35c-0.07,0.19-0.17,0.36-0.26,0.54
			c-0.38,3.79-0.68,7.69-0.85,11.81c-0.09,2.05-1.45,3.74-3.29,4.34c-0.47,0.15-0.97,0.24-1.49,0.24c-0.07,0-0.13,0-0.2,0
			c-2.64-0.11-4.69-2.34-4.58-4.98c0.22-5.3,0.63-10.27,1.19-15.07c-4.87,5.32-11.26,9.37-19.94,10.92
			c-2.1,0.37-4.14,0.56-6.11,0.56c-6.59,0-12.28-2.06-16.13-5.96c-0.55-0.55-1.06-1.14-1.54-1.77c-0.53,0.97-1.07,1.91-1.59,2.83
			c-0.79,1.39-1.68,3.1-2.69,5.02c-5.5,10.5-14.65,27.96-27.25,32.09c-1.77,0.58-3.6,0.9-5.5,0.9c-2.2,0-4.49-0.43-6.88-1.37
			c-17.15-6.75-10.91-35.21-7.06-45.61c4.81-12.99,13.66-26.05,26.32-38.82c5.38-5.42,19.09-15.29,30.23-15.29
			c1.9,0,3.73,0.29,5.43,0.94c3.94,1.5,8.75,5.44,9.31,15.71c0.14,2.64-1.88,4.9-4.52,5.03c-0.09,0-0.18,0.01-0.26,0.01
			c-2.52,0-4.63-1.98-4.77-4.53c-0.22-4.12-1.28-6.57-3.16-7.29c-0.62-0.23-1.34-0.34-2.14-0.34c-6.39,0-17.84,6.96-23.34,12.5
			c-11.69,11.8-19.82,23.71-24.15,35.41c-3.57,9.66-6.9,30.04,1.6,33.39c1.06,0.42,2.11,0.62,3.16,0.62
			c9.99,0,19.28-17.8,24.5-27.78c1.06-2.02,2.01-3.84,2.84-5.3c1.97-3.46,3.75-6.71,5.16-9.84c-1.41-7.85,0.42-14.44,5.1-18.19
			c0.86-0.69,1.92-1.05,2.99-1.05c0.66,0,1.34,0.14,1.97,0.42c1.64,0.74,2.73,2.34,2.81,4.13c0.26,5.5-0.98,10.72-2.85,15.56
			c0.75,2.63,1.76,4.57,3.08,5.9c2.45,2.49,6.13,3.12,9.24,3.12c1.83,0,3.47-0.22,4.52-0.41c15.39-2.74,21.42-16.41,25.78-30.19
			c1.39-8.75,2.78-18.99,4.23-29.67c3.61-26.64,7.71-56.84,13.34-74.46c8.32-26.04,20.11-42.01,36.05-48.82
			C415.75,133.59,419.32,132.77,422.7,132.77 M371.42,263.55c2.34-3.51,4.87-6.85,7.36-10.15l2.1-2.79
			c38.23-50.47,57.64-88.85,51.94-102.68c-0.8-1.95-2.57-4.65-8.61-5.5c-0.46-0.06-0.94-0.1-1.44-0.1c-1.52,0-3.19,0.3-5.02,0.9
			c-0.7,0.23-1.41,0.5-2.16,0.82c-13.23,5.65-23.27,19.7-30.7,42.93c-5.38,16.82-9.41,46.58-12.98,72.84
			C371.76,261.07,371.59,262.31,371.42,263.55 M471.3,253.15c1.68-1.09,3.36-2.16,5.03-3.2c5.84-3.69,11.35-7.17,16.16-11.58
			c16.79-15.38,19.73-22.85,19.28-26.44c-0.12-0.95-0.55-2.2-2.91-3.47c-0.66-0.36-1.6-0.75-2.92-0.75c-0.78,0-1.7,0.13-2.79,0.49
			c-0.02,0.01-0.03,0.01-0.05,0.02c-10.35,3.45-22.61,21.77-26.59,30.36C473.86,244.32,472.02,248.77,471.3,253.15"/>
	</g>
	<path class="st2" d="M261.93,379.27c-2.25-1.39-5.2-0.7-6.58,1.55c-24.4,39.44-55.51,59.3-85.36,54.48
		c-23.24-3.75-41.56-22.39-47.81-48.64c-2.39-10.05-3.75-20.39-4.08-30.99c4.18-0.72,7.99-1.52,11.28-2.3
		c34.07-8.05,76.53-37.58,91.74-51.6c15.7-14.48,43.76-43.68,55.27-76.54c5.63-16.07,12.06-50.66-3.91-66.59
		c-15.18-15.14-40.17-9.66-58.51,0.53c-17.45,9.7-31.85,24.31-44.81,38.67c-15.72,17.41-29.03,38.23-39.55,61.88
		c-13.57,30.52-20.64,59.86-21.14,87.67c-15.87,1.89-36.23,1.88-51.07-6.74c-20.61-11.97-31.59-38.02-26.09-61.94
		c7.23-31.46,41.71-52.52,75.27-46c2.58,0.49,5.1-1.19,5.61-3.78c0.5-2.59-1.19-5.1-3.78-5.61c-38.48-7.47-78.06,16.91-86.41,53.25
		c-6.41,27.9,6.47,58.33,30.61,72.35c16.63,9.66,38.18,10.17,55.96,8.13c0.41,10.86,1.84,21.48,4.31,31.83
		c7.16,30.08,28.46,51.49,55.59,55.87c10.68,1.72,21.43,0.77,31.99-2.69c22.9-7.52,44.86-26.84,63.02-56.2
		C264.87,383.6,264.18,380.66,261.93,379.27z M138.35,263.6c10.11-22.72,22.87-42.69,37.91-59.35
		c12.41-13.74,26.13-27.7,42.36-36.72c14.59-8.1,35.68-13.52,47.11-2.11c10.99,10.96,7.58,39.73,1.64,56.66
		c-10.83,30.9-37.69,58.79-52.73,72.67c-14.12,13.01-55.57,41.78-87.46,49.33c-2.44,0.58-5.54,1.24-9.1,1.88
		C118.8,319.89,125.57,292.33,138.35,263.6z"/>
	<g>
		<path class="st2" d="M328.45,403.02c-0.42-1.28-1.19-2.21-2.31-2.8c-1.12-0.58-2.32-0.67-3.6-0.25l-12.11,3.97
			c-1.28,0.42-2.21,1.19-2.8,2.31c-0.59,1.12-0.67,2.32-0.25,3.6c0.42,1.28,1.2,2.19,2.33,2.75c1.13,0.55,2.34,0.62,3.62,0.2
			l6.94-2.28l3.13,9.53c-0.9,0.72-1.99,1.44-3.38,2.17c-1.67,0.88-3.25,1.55-4.73,2.04c-3.2,1.05-6.38,1.2-9.53,0.47
			c-3.16-0.73-5.96-2.2-8.39-4.4c-2.44-2.2-4.18-4.9-5.23-8.1c-1.07-3.24-1.27-6.47-0.6-9.66c0.67-3.19,2.06-6.01,4.17-8.48
			c2.11-2.46,4.76-4.22,7.96-5.27c1.52-0.5,3.03-0.83,4.5-0.98c1.47-0.16,2.92-0.17,4.32-0.03c0.46,0.07,0.92,0.08,1.36,0.04
			c0.45-0.04,0.87-0.12,1.27-0.25c1.23-0.41,2.08-1.2,2.56-2.4c0.48-1.19,0.53-2.38,0.14-3.56c-0.23-0.69-0.63-1.31-1.22-1.85
			c-0.59-0.54-1.31-0.89-2.18-1.04c-2.14-0.39-4.38-0.48-6.71-0.26c-2.33,0.22-4.65,0.71-6.96,1.47c-3.74,1.23-7.01,3.06-9.8,5.51
			c-2.8,2.44-5.02,5.28-6.68,8.53s-2.67,6.69-3.02,10.35c-0.35,3.66,0.08,7.34,1.29,11.03c1.21,3.69,3.04,6.91,5.49,9.64
			c2.45,2.74,5.31,4.92,8.57,6.55c3.26,1.63,6.74,2.6,10.44,2.91c3.7,0.31,7.42-0.14,11.16-1.37c2.95-0.97,5.63-2.3,8.05-3.99
			c2.41-1.69,4.53-3.6,6.34-5.72c0.46-0.59,0.82-1.28,1.08-2.07c0.26-0.79,0.23-1.68-0.1-2.66L328.45,403.02z"/>
		<path class="st2" d="M379.45,404.19c-0.76-0.13-1.35-0.48-1.78-1.05c-0.43-0.57-0.84-1.31-1.22-2.22s-0.87-1.95-1.47-3.12
			c-0.54-1.3-1.25-2.44-2.15-3.42c-0.89-0.99-1.96-1.83-3.2-2.54c-0.81-0.46-1.73-0.8-2.7-1.08c0.84-1.04,1.61-2.15,2.19-3.45
			c0.83-1.85,1.34-3.8,1.53-5.81c0.18-2.02-0.04-3.97-0.65-5.84c-1.02-3.1-2.61-5.62-4.77-7.55c-2.16-1.94-4.58-3.21-7.27-3.83
			c-2.68-0.62-5.31-0.51-7.87,0.33l-21.26,6.98c-1.28,0.42-2.21,1.2-2.79,2.35c-0.58,1.14-0.66,2.35-0.24,3.63l14,42.67
			c0.42,1.28,1.31,2.17,2.68,2.68c1.36,0.51,2.74,0.53,4.12,0.08c1.23-0.41,2.05-1.15,2.45-2.24c0.41-1.09,0.4-2.27-0.02-3.55
			l-4.7-14.32l13.81-4.53c1.13-0.37,2.16-0.56,3.09-0.56c0.93-0.01,1.74,0.16,2.45,0.5c0.71,0.34,1.33,0.82,1.86,1.43
			c0.53,0.62,0.93,1.34,1.21,2.18c0.84,2.56,1.78,4.57,2.83,6.02c1.05,1.46,2.15,2.53,3.3,3.21c1.15,0.68,2.22,1.13,3.22,1.35
			c0.64,0.11,1.4,0.13,2.3,0.02c0.9-0.1,1.73-0.38,2.51-0.82c0.78-0.44,1.33-1.08,1.67-1.9c0.53-1.21,0.46-2.37-0.2-3.49
			C381.72,405.17,380.74,404.47,379.45,404.19z M360.2,387.9c-0.57,1.09-1.3,1.77-2.18,2.06l-16.16,5.31l-5.5-16.76l16.17-5.3
			c1.33-0.43,2.81-0.12,4.44,0.95c1.64,1.07,2.81,2.69,3.52,4.86c0.55,1.67,0.78,3.3,0.7,4.88
			C361.1,385.47,360.77,386.81,360.2,387.9z"/>
		<path class="st2" d="M421.41,358.37c-2.28-2.79-4.94-5.04-7.98-6.74c-3.04-1.7-6.32-2.74-9.85-3.1
			c-3.53-0.37-7.12,0.04-10.76,1.24c-3.64,1.2-6.76,2.98-9.36,5.36c-2.6,2.38-4.62,5.15-6.06,8.33c-1.44,3.17-2.25,6.56-2.43,10.16
			c-0.18,3.6,0.34,7.25,1.55,10.94c1.21,3.69,2.96,6.93,5.24,9.73c2.28,2.8,4.94,5.04,7.98,6.74c3.03,1.7,6.31,2.74,9.81,3.12
			c3.51,0.38,7.08-0.03,10.72-1.23c3.64-1.19,6.78-2.99,9.4-5.38c2.62-2.38,4.65-5.16,6.09-8.34s2.25-6.56,2.43-10.16
			c0.18-3.6-0.33-7.25-1.54-10.94C425.44,364.41,423.69,361.16,421.41,358.37z M418,380.87c-0.45,3.12-1.57,5.85-3.37,8.18
			c-1.8,2.34-4.22,4-7.27,5c-3.05,1-5.99,1.1-8.82,0.27c-2.83-0.81-5.33-2.34-7.52-4.6c-2.18-2.25-3.82-5.03-4.9-8.33
			c-1.1-3.35-1.43-6.56-1-9.65c0.43-3.09,1.54-5.79,3.34-8.13c1.8-2.33,4.22-4,7.27-5c3.05-1,5.99-1.09,8.82-0.28
			c2.83,0.82,5.35,2.35,7.56,4.59c2.21,2.24,3.86,5.02,4.94,8.32C418.13,374.54,418.45,377.75,418,380.87z"/>
		<path class="st2" d="M477.44,339.98c-2.28-2.79-4.94-5.04-7.98-6.74c-3.04-1.7-6.32-2.73-9.85-3.1
			c-3.53-0.37-7.11,0.04-10.75,1.24c-3.65,1.2-6.76,2.98-9.36,5.37c-2.6,2.38-4.62,5.15-6.06,8.32c-1.44,3.17-2.25,6.56-2.43,10.16
			c-0.18,3.61,0.34,7.25,1.55,10.94c1.21,3.69,2.96,6.94,5.23,9.73c2.28,2.8,4.94,5.04,7.98,6.74s6.31,2.74,9.81,3.12
			c3.5,0.38,7.07-0.03,10.72-1.23c3.64-1.19,6.77-2.99,9.4-5.38c2.62-2.38,4.66-5.16,6.1-8.34c1.44-3.17,2.25-6.55,2.43-10.16
			c0.18-3.6-0.33-7.25-1.55-10.94C481.46,346.02,479.72,342.78,477.44,339.98z M474.03,362.48c-0.44,3.12-1.57,5.85-3.37,8.18
			c-1.79,2.34-4.22,4-7.27,5c-3.05,1-5.99,1.1-8.82,0.28c-2.83-0.81-5.34-2.35-7.52-4.6c-2.18-2.25-3.82-5.03-4.9-8.33
			c-1.1-3.35-1.43-6.56-1-9.65c0.43-3.09,1.55-5.79,3.34-8.13c1.8-2.33,4.22-4,7.27-5c3.05-1,5.99-1.09,8.82-0.28
			c2.83,0.82,5.35,2.35,7.56,4.59c2.21,2.25,3.86,5.02,4.94,8.32C474.16,356.16,474.47,359.36,474.03,362.48z"/>
		<path class="st2" d="M519.47,310.2c-1.18-0.51-2.38-0.57-3.61-0.17c-1.87,0.61-2.92,1.99-3.14,4.14l-2.14,39.34l-26.28-30.02
			c-1.47-1.64-3.13-2.16-5-1.54c-0.94,0.31-1.8,1.01-2.58,2.11c-0.78,1.1-0.94,2.36-0.47,3.79c0.1,0.29,0.22,0.6,0.38,0.9
			c0.15,0.3,0.35,0.58,0.6,0.82l32.28,36.83c0.68,0.76,1.47,1.25,2.36,1.47c0.89,0.22,1.74,0.23,2.54,0.02
			c0.83-0.27,1.58-0.78,2.24-1.52c0.66-0.73,1.05-1.66,1.16-2.79l4.23-48.65c0.07-0.78,0-1.5-0.21-2.14
			C521.43,311.59,520.64,310.72,519.47,310.2z"/>
		<path class="st2" d="M573.85,343.75c-0.37-1.13-1.13-1.99-2.28-2.56c-1.14-0.58-2.35-0.66-3.63-0.24l-20.01,6.57l-4.48-13.66
			l16.69-5.47c1.28-0.42,2.22-1.15,2.84-2.19c0.61-1.05,0.71-2.18,0.31-3.41c-0.42-1.28-1.19-2.18-2.32-2.71
			c-1.13-0.53-2.33-0.58-3.61-0.16l-16.68,5.48l-4.12-12.55l20-6.56c1.28-0.42,2.23-1.15,2.84-2.2c0.61-1.04,0.72-2.18,0.31-3.41
			c-0.42-1.28-1.2-2.18-2.32-2.71s-2.33-0.59-3.61-0.17l-24.73,8.11c-1.28,0.42-2.21,1.2-2.79,2.35c-0.58,1.14-0.66,2.35-0.24,3.63
			l14,42.67c0.42,1.28,1.2,2.21,2.34,2.79c1.14,0.58,2.36,0.66,3.64,0.24l24.73-8.11c1.28-0.42,2.22-1.17,2.83-2.23
			C574.16,346.13,574.26,344.98,573.85,343.75z"/>
	</g>
	<g>
		<path class="st2" d="M408.78,456.21c-1.84-1.49-2.79-3.61-2.66-5.98c0.1-1.85,0.88-3.8,2.04-5.68c-1.36-0.71-2.65-1.28-3.64-1.57
			c-2.08-0.58-4.46-0.75-7.49-0.52c-13.07,1-25.28,8.09-36.06,14.35c-3.68,2.13-7.4,4.47-11,6.74
			c-19.31,12.14-39.28,24.7-64.63,13.88c-1.57-0.67-2.29-2.48-1.62-4.05c0.67-1.57,2.49-2.3,4.05-1.62
			c22.36,9.54,40.12-1.62,58.91-13.43c3.64-2.29,7.41-4.66,11.18-6.85c11.36-6.6,24.23-14.07,38.69-15.16
			c3.77-0.29,6.83-0.05,9.64,0.74c0.67,0.19,3.09,1.14,5.83,2.62c2.16-2.23,4.54-4.12,6.43-5.33c23.68-15.2,49.35-18.37,70.42-8.71
			c1.55,0.71,2.23,2.54,1.52,4.09c-0.71,1.55-2.54,2.23-4.09,1.52c-19.11-8.77-42.62-5.75-64.51,8.29
			c-1.47,0.95-3.04,2.21-4.48,3.58c2.2,1.78,3.95,3.83,4.3,6.01c0.52,3.22-0.89,6.23-3.68,7.85c-0.71,0.41-1.46,0.7-2.22,0.88
			C413.35,458.4,410.8,457.84,408.78,456.21z M412.29,450.57c-0.02,0.4,0.06,0.59,0.37,0.85c0.79,0.64,1.64,0.54,2.19,0.22
			c0.56-0.33,0.79-0.84,0.69-1.49c-0.18-0.57-1.02-1.41-2.19-2.32C412.72,448.85,412.33,449.8,412.29,450.57z"/>
	</g>
	<g>
		<g>
			<path class="st2" d="M89.29,298.35c-0.83,0-1.67-0.32-2.3-0.95l-18-18c-1.27-1.27-1.27-3.33,0-4.61c1.27-1.27,3.33-1.27,4.61,0
				l18,18c1.27,1.27,1.27,3.33,0,4.61C90.96,298.03,90.13,298.35,89.29,298.35z"/>
		</g>
		<g>
			<path class="st2" d="M71.3,298.35c-0.83,0-1.67-0.32-2.3-0.95c-1.27-1.27-1.27-3.33,0-4.61l18-18c1.27-1.27,3.33-1.27,4.61,0
				c1.27,1.27,1.27,3.33,0,4.61l-18,18C72.96,298.03,72.13,298.35,71.3,298.35z"/>
		</g>
	</g>
	<g>
		<g>
			<path class="st2" d="M333.7,84.28c-0.83,0-1.67-0.32-2.3-0.95l-18-18c-1.27-1.27-1.27-3.33,0-4.61c1.27-1.27,3.33-1.27,4.61,0
				l18,18c1.27,1.27,1.27,3.33,0,4.61C335.37,83.97,334.53,84.28,333.7,84.28z"/>
		</g>
		<g>
			<path class="st2" d="M315.7,84.28c-0.83,0-1.67-0.32-2.3-0.95c-1.27-1.27-1.27-3.33,0-4.61l18-18c1.27-1.27,3.33-1.27,4.61,0
				c1.27,1.27,1.27,3.33,0,4.61l-18,18C317.37,83.97,316.53,84.28,315.7,84.28z"/>
		</g>
	</g>
	<g>
		<g>
			<path class="st2" d="M470.83,491.84c-0.83,0-1.67-0.32-2.3-0.95l-18-18c-1.27-1.27-1.27-3.33,0-4.61c1.27-1.27,3.33-1.27,4.61,0
				l18,18c1.27,1.27,1.27,3.33,0,4.61C472.49,491.52,471.66,491.84,470.83,491.84z"/>
		</g>
		<g>
			<path class="st2" d="M452.83,491.84c-0.83,0-1.67-0.32-2.3-0.95c-1.27-1.27-1.27-3.33,0-4.61l18-18c1.27-1.27,3.33-1.27,4.61,0
				c1.27,1.27,1.27,3.33,0,4.61l-18,18C454.49,491.52,453.66,491.84,452.83,491.84z"/>
		</g>
	</g>
	<path class="st2" d="M327.08,198.57c-1.71,0-3.46-0.52-5.09-1.56c-6.87-4.35-10.96-16.63-9.95-29.87
		c0.68-8.9,5.55-19.01,13.38-29.08c-8.38-14.43-22.03-22.59-31.4-26.76c-31.69-14.09-73.93-10.3-96.16,8.62
		c-1.52,1.29-3.8,1.11-5.1-0.41c-1.29-1.52-1.11-3.8,0.41-5.1c24.58-20.92,69.19-25.1,103.79-9.72
		c14.79,6.58,26.08,15.95,33.39,27.47c12.84-14.36,31.3-28.11,51.76-37.52c21.76-10,63.46-22.95,98.37,2.64
		c1.61,1.18,1.96,3.45,0.78,5.06c-1.18,1.61-3.44,1.96-5.06,0.78c-31.92-23.41-70.76-11.24-91.07-1.91
		c-20.33,9.35-38.88,23.43-51.09,37.65c3.72,7.88,5.77,16.58,6.04,25.95c0.52,17.77-2.53,29.05-8.79,32.62
		C329.97,198.2,328.53,198.57,327.08,198.57z M328.94,145.34c-5.68,7.89-9.17,15.62-9.69,22.36c-0.96,12.51,3.29,21.1,6.61,23.2
		c1.09,0.69,1.59,0.41,1.85,0.25c2.15-1.23,5.66-8.11,5.14-26.12C332.64,157.6,331.2,151.07,328.94,145.34z"/>
</g>
</svg>
