<?xml version="1.0" encoding="utf-8"?>
<!-- Generator: Adobe Illustrator 24.1.0, SVG Export Plug-In . SVG Version: 6.00 Build 0)  -->
<svg version="1.1" id="Layer_1" xmlns="http://www.w3.org/2000/svg" xmlns:xlink="http://www.w3.org/1999/xlink" x="0px" y="0px"
	 viewBox="0 0 382 382" style="enable-background:new 0 0 382 382;" xml:space="preserve">
<style type="text/css">
	.st0{fill:#E4DDD9;}
</style>
<g id="XMLID_112_">
	<path id="XMLID_117_" class="st0" d="M240,87.4h-98c-30,0-54.6,25.1-54.6,55.8v95.7c0,30.7,24.6,55.8,54.6,55.8h98
		c30,0,54.6-25.1,54.6-55.8v-95.7C294.6,112.5,270,87.4,240,87.4z M276.1,237.4c0,21.2-17,38.6-37.8,38.6h-94.5
		c-20.8,0-37.8-17.4-37.8-38.6v-92.9c0-21.2,17-38.6,37.8-38.6h94.5c20.8,0,37.8,17.4,37.8,38.6V237.4z"/>
	<path id="XMLID_114_" class="st0" d="M191,137.8c-28.8,0-52.1,23.8-52.1,53.2s23.3,53.2,52.1,53.2s52.1-23.8,52.1-53.2
		S219.8,137.8,191,137.8z M191,225.3c-18.6,0-33.6-15.4-33.6-34.3c0-19,15-34.3,33.6-34.3s33.6,15.4,33.6,34.3
		C224.6,210,209.6,225.3,191,225.3z"/>
	<ellipse id="XMLID_71_" class="st0" cx="245.9" cy="134.9" rx="11.8" ry="12"/>
</g>
</svg>
