<?xml version="1.0" encoding="utf-8"?>
<!-- Generator: Adobe Illustrator 24.1.0, SVG Export Plug-In . SVG Version: 6.00 Build 0)  -->
<svg version="1.1" id="Layer_1" xmlns="http://www.w3.org/2000/svg" xmlns:xlink="http://www.w3.org/1999/xlink" x="0px" y="0px"
	 viewBox="0 0 382 382" style="enable-background:new 0 0 382 382;" xml:space="preserve">
<style type="text/css">
	.st0{fill:#E4DDD9;}
</style>
<path class="st0" d="M140.8,283c0,3.7-3,6.7-6.7,6.7h-28.4c-3.7,0-6.7-3-6.7-6.7V164.1c0-3.7,3-6.7,6.7-6.7h28.4
	c3.7,0,6.7,3,6.7,6.7V283z M119.9,146.2c-14.9,0-26.9-12.1-26.9-26.9s12.1-26.9,26.9-26.9s26.9,12.1,26.9,26.9
	S134.8,146.2,119.9,146.2z M289,283.5c0,3.4-2.7,6.1-6.1,6.1h-30.4c-3.4,0-6.1-2.7-6.1-6.1v-55.8c0-8.3,2.4-36.5-21.7-36.5
	c-18.8,0-22.6,19.3-23.3,27.9v64.3c0,3.4-2.7,6.1-6.1,6.1h-29.4c-3.4,0-6.1-2.7-6.1-6.1v-120c0-3.4,2.7-6.1,6.1-6.1h29.4
	c3.4,0,6.1,2.7,6.1,6.1v10.4c7-10.4,17.3-18.5,39.3-18.5c48.7,0,48.5,45.5,48.5,70.5v57.7H289z"/>
</svg>
